<svg width="50" height="28" fill="none" xmlns="http://www.w3.org/2000/svg"><path d="M5.28 18.811h1.727l-4.7 8.749H.061l5.217-8.749zm2.866 0h1.64L5.734 27.56H3.573l4.573-8.749zm2.684 0h1.64L9.124 27.56h-2.16l3.866-8.749zm2.656 0h1.64l-2.462 8.749h-2.161l2.983-8.749zm2.661 0h1.639l-1.923 8.749h-2.161l2.445-8.749zm2.773 0h1.64l-1.231 8.749h-2.161l1.752-8.749zm2.584 0h1.71l-.296 8.75-2.33-.001.916-8.749zm2.573 0h1.948l.087 8.749h-2.318l.283-8.749zm2.957 0h1.64l.771 8.749h-2.16l-.251-8.749zm2.774 0h1.639l1.414 8.748H30.7l-.892-8.748zm2.444 0h1.64l2.451 8.748h-2.16l-1.93-8.748zm2.826-.001h1.64l3 8.75h-2.161l-2.479-8.75zm2.652 0h1.64l3.815 8.75h-2.16l-3.294-8.75zm2.757 0h1.64l4.375 8.749h-2.16l-3.855-8.748zm2.673 0h1.64l5.077 8.75h-2.16l-4.557-8.75zM9.34 12.05h1.335l-2.836 5.066h-1.62l3.12-5.066zm2.283 0h1.152l-2.322 5.066h-1.46l2.63-5.066zm2.07 0h1.34l-2.008 5.066h-1.402l2.07-5.066zm2.122 0h1.34l-1.676 5.066h-1.403l1.739-5.066zm2.235 0h1.335l-1.155 5.065h-1.62l1.44-5.065zm2.065 0h1.225l-.555 5.065H19.24l.876-5.065zm1.963 0h1.42v5.065h-1.776l.356-5.065zm2.295 0h1.434l.064 5.066h-1.498V12.05zm2.319 0h1.335l.286 5.065h-1.62V12.05zm2.015 0h1.434l.864 5.065h-1.684l-.614-5.065zm2.093 0h1.396l1.404 5.065h-1.605l-1.194-5.065zm2.179 0h1.339l1.635 5.065H34.55l-1.57-5.065zm2.157 0h1.365l2.06 5.065h-1.673l-1.752-5.065zm2.162 0h1.395l2.52 5.065h-1.65l-2.265-5.065zm2.178 0h1.34l2.82 5.065h-1.473l-2.687-5.065zM12.195 7.52h.889L11.33 10.9h-1.206l2.07-3.38zm1.719 0h1.075l-1.644 3.38h-1.15l1.719-3.38zm1.76 0h.96L15.37 10.9h-1.177l1.48-3.38zm1.853 0h.939l-.976 3.362h-1.22l1.257-3.363zm1.656 0l.842.018-.387 3.343H18.25l.933-3.362zm1.741 0h.956l-.137 3.361h-1.39l.57-3.362zm1.684 0l1.138.018v3.343l-1.4.02.262-3.382zm1.765 0h1.434v3.361l-1.434.02V7.518zm2.042 0h.847l.421 3.361-1.268.02V7.518zm1.733 0h.82l.831 3.38-1.355-.019-.296-3.362zm1.765.018l1.127-.019.637 3.362h-1.189l-.575-3.343zm1.742-.018h.847l1.268 3.342-1.268.02-.847-3.363zm1.895.018h.846l1.48 3.362-1.268.02-1.059-3.382zm1.739 0h.847l1.77 3.343-1.27.02-1.347-3.363zm1.769 0h.847l2.057 3.343-1.269.02-1.635-3.363zM13.914 4.675l.626-.019-.935 2.009-.83.019 1.139-2.009zm1.616 0h.706l-.878 1.99h-.878l1.05-1.99zm1.331-.019l.831.019-.592 1.99h-.819l.58-2.009zm1.764.019h.808l-.58 1.99h-.91l.682-1.99zm1.4 0h.842l-.57 1.99h-.864l.592-1.99zm1.411 0h.899v1.99h-1.15l.25-1.99zm1.774 0h.854v1.99h-1.16l.307-1.99zm1.469 0h.83v1.99h-.83v-1.99zm1.434 0h.853l.296 1.99h-1.15v-1.99zm1.707 0h.853l.296 1.99h-1.15v-1.99zm1.501 0h.842l.57 1.99h-1.15l-.262-1.99zm1.411 0h.865l.905 1.99h-1.15l-.62-1.99zm1.491 0h.836l1.15 1.99h-1.15l-.836-1.99zm1.735 0h.854l1.149 1.99h-1.15l-.853-1.99zm1.531 0h.853l1.087 1.99h-1.15l-.79-1.99zM15.358 3.83h-.878l.936-1.672h.82l-.878 1.672zm1.173-1.672h.865L16.77 3.83h-.819l.58-1.672zm1.446 0h.83L18.25 3.83h-.854l.58-1.672zm1.456 0h.865l-.592 1.672h-.842l.569-1.672zm1.195 0h.808L21.15 3.83h-.853l.33-1.672zm1.422 0h.876L22.62 3.83h-.842l.273-1.672zm1.16 0h.854V3.83h-.853V2.158zm1.469 0h.83V3.83h-.83V2.158zm1.434 0h.853V3.83h-.853V2.158zm1.149 0h.886l.274 1.672h-.876l-.284-1.672zm1.411 0h.91l.262 1.672h-.876l-.296-1.672zm1.49 0l.296 1.672h.894l-.62-1.672h-.57zm1.19 0h.585l.843 1.672h-.842l-.586-1.672zm1.427 0h.604l.825 1.672h-.825l-.603-1.672zm1.178 0h.854l.859 1.672h-.86l-.853-1.672zM16.531.474h.549l-.549 1.083h-.58l.58-1.083zm1.177 0c.18-.027.542-.065.542 0 0 .066-.361.75-.542 1.083h-.628l.628-1.083zm1.156 0h.569l-.569 1.083h-.54l.54-1.083zm1.434 1.083l.33-1.083h-.603l-.319 1.083h.592zm.853-1.083h.626l-.341 1.083h-.57l.285-1.083zm1.184 0h.591v1.083h-.591V.474zm1.162 0h.567v1.083h-.567V.474zm1.182 0h.558v1.083h-.558V.474zm1.434 0h.562v1.083h-.562V.474zm1.149 0h.597v1.083h-.597V.474zm1.16 0h.547l.304 1.083h-.532L28.422.474zm1.161 0h.58l.296 1.083h-.546l-.33-1.083zm1.149 0h.62l.265 1.083h-.556L30.732.474zm1.207 0h.536l.568 1.083h-.568L31.938.474zm2.27 1.083h-.562L33.043.474h.604l.562 1.083z" fill="#000"/></svg>