<svg width="151" height="151" fill="none" xmlns="http://www.w3.org/2000/svg"><path d="M65.13 111.26l-3.031-2.025-2.092.011-1.375-.189a6.685 6.685 0 01-1.57-.416l-1.416-.566a16.467 16.467 0 01-2.933-1.53c-1.191-.783-2.31-1.676-3.419-2.577-1.33-1.08-2.9-2.172-2.309-.769.385.913.967 1.901 1.531 2.763 1.058 1.615 2.385 3.017 3.768 4.35l2.217 2.183 2.522 1.953 4.14 2.763 4.38 2.206 3.166 1.329 2.823.819 4.03 1.05 2.9.533 3.756.384 2.917.04 2.224.052c.867.02 1.734-.033 2.593-.159l2.354-.346 5.133-.911 4.624-1.361 5.061-1.756 5.274-2.612 4.352-2.774 3.301-2.277 2.937-2.699 3.182-3.035 2.668-3.309 2.014-2.86 1.692-3.106 1.799-3.395.783-2.017.782-2.692-2.443 4.015-2.002 2.996-2.595 3.487-3.205 3.64-3.757 3.395-4.07 3.082-4.329 2.844-4.145 2.026-4.289 1.669-4.786 1.499-4.311.924-4.29.556-4.844-.107-1.594-.219-2.58-.356-2.457-.338-3.425-.653-1.584-.449-2.036-.718-2.453-1.165-3.567-2.083-2.015-1.1z" fill="#000"/><path d="M95.589 108.355l-4.26 1.03-1.185 1.113-.327.288a7.469 7.469 0 01-2.627 1.495l-1.097.355c-.887.287-1.794.507-2.711.66-1.588.263-3.192.373-4.794.491-1.625.119-3.258.387-1.98.988.88.413 1.957.746 2.94.998 1.84.472 3.748.603 5.655.644l6.26-.176 5.057-.932 4.615-1.208 3.261-1.176 2.674-1.321 3.741-1.974 2.549-1.583 3.062-2.426 2.315-2.047 1.824-1.772 2.972-3.268 2.868-4.414 2.339-4.099 2.056-4.955 1.741-5.42.759-5.218.384-3.58-.005-4.084-.129-4.461-1.002-4.601-.619-2.644-1.254-3.5-1.334-3.324-1.24-2.05-.954-1.538.909 3.41 1.099 3.657.504 2.251.299 1.824.487 3.112.203 3.003.075 3.484-.494 5.226-.736 5.067-1.174 4.083-1.495 4.138-2.167 4.271-2.121 3.453-1.436 1.94-2.996 3.415-2.796 2.447-2.625 2.067-1.731 1.182-1.423.874-2.712 1.463-2.134.795-2.286.891c-.342.133-.694.24-1.052.319l-3.513.775-2.24.562zM55.908 43.34l4.536-.976 1.536-1.406 1.458-.938a5.447 5.447 0 011.112-.547l.783-.28a17.607 17.607 0 013.744-.892c1.252-.157 2.51-.217 3.77-.27 1.819-.075 4.105-.312 2.705-1.042-1.218-.635-2.801-.974-3.964-1.15-1.048-.158-2.11-.21-3.17-.282l-1.312-.087-6.103-.084-5.29.82-4.794 1.369-3.358 1.12-2.701 1.176-3.202 1.83-2.478 1.517-1.264.816-1.542 1.31-2.716 2.212-2.065 2.156-2.472 2.855-3.022 4.134-2.346 4.042-2.054 4.42-1.79 5.242-1.226 4.778-.53 3.646-.003 3.999.087 4.342.618 4.433.568 2.723.998 3.38 1.246 3.325 1.174 2.698 1.861 3.228-1.077-4.044-.635-2.207-.83-3.068-.344-1.931-.313-1.946-.206-3.162-.19-2.798.214-3.522.715-4.914.9-5.226 1.194-3.676 1.603-3.906 2.03-3.796 2.05-3.013 1.661-2.306 2.689-2.778 3.066-2.836 1.82-1.298 1.853-1.293 1.748-1.032 2.114-1.258 2.496-1.139 2.787-.851 3.414-1.044 2.447-.572z" fill="#000"/><path d="M86.416 39.872l3.992 2.333 2.04-.03 1.677.274c.405.066.802.18 1.181.339l.755.315a17.389 17.389 0 013.354 1.862c1.028.73 2.001 1.537 2.967 2.35 1.399 1.178 3.248 2.55 2.676 1.042-.284-.75-.721-1.55-1.184-2.291-1.268-2.03-2.962-3.727-4.685-5.367l-3.9-3.434-4.45-2.965-4.435-2.208-3.208-1.425-2.757-.936-3.548-.777-2.81-.525-1.46-.235-1.982-.049-3.432-.156-3.033.012-4.218.364-4.27.724-5.034 1.09-4.085 1.337-5.327 2.608-4.918 2.833-2.892 1.96-3.593 2.44-3.46 3.557-3.228 3.903-2.289 3.47-1.784 2.965-1.35 2.717-.837 2.034-1.056 3.497 1.954-3.154 1.13-1.727 1.493-2.239 1.197-1.742 1.123-1.361 1.996-2.044 1.725-1.963 2.6-2.524 6.574-5.015 4.926-2.885 3.615-1.808 4.29-1.558 3.917-1.086 3.856-.67 3.014-.47 3.602.024 2.18.018 2.099.373 2.18.245 2.203.271 1.958.4 2.373.475 2.581.825 2.613 1.242 3.202 1.521 2.182 1.224zM34.4 95.878l1.716 4.844 1.545 3.332 1.85 2.744 1.903 2.769 1.71 2.19 1.318 1.498 1.431 1.353 2.39 2.16 2.236 1.737 3.044 2.103 2.993 1.816 5.494 2.784 4.098 1.612 4.785 1.327a33.56 33.56 0 004.918 1.059l.87.12 3.377.465 3.467.306 4.671-.004 5.084-.466 3.251-.589 3.3-.92 2.907-.849 2.714-.89 4.14-2.286-3.946.952-2.686.697-2.525.629-2.99.472-2.154.192-2.163.16-2.29.02-3.304.185-8.24-1.136-5.187-.714-3.836-1.231-3.82-1.533-3.457-1.605-2.782-1.574-2.859-1.858-2.383-1.885-1.854-1.659-1.324-1.25-1.424-1.57-1.432-1.723-1.282-1.739-1.247-1.783-1.59-2.507-1.27-2.72L42.35 97.5l-.7-2.463-.884-4.17-.658-1.159-.884-.824-1.477-1.82-1.418-3.15-.414-3.365s-.348-6.976-1.318-4.624c-.97 2.352-1.498 5.651-1.498 5.651l-.069 3.617.306 5.413 1.063 5.272z" fill="#000"/><path d="M31.496 61.478l-2.5 4.62-1.535 3.411-1.004 3.3-.768 3.45-.401 2.763-.111 2.04-.003 2.002.102 3.27.222 2.862.665 3.822.646 3.537 2.278 5.605 1.95 4.186 2.494 4.061 1.758 2.491 1.703 2.267 2.238 2.321 2.358 2.465 3.254 2.807 3.515 2.571 3.087 1.786 3.227 1.66 3.165 1.489 2.53.912 3.23.808-2.785-1.454-1.498-.787-1.587-.89-1.789-.954-2.61-1.685-2.104-1.559-2.178-1.77-2.723-2.479-2.3-2.258-2.668-3.107-3.05-4.084-2.313-3.619-1.63-3.38-1.312-3.264-.98-3.272-.914-3.715-.22-2.825-.18-2.509-.104-1.807.339-2.338.336-2.316.276-1.9.333-2.295.716-2.945 1.206-2.82 1.67-3.256 1.43-2.215 2.324-3.514.608-1.29.18-1.243.329-2.265 1.274-3.15 1.958-2.605s5.151-4.89 2.818-4.036c-2.333.853-5.402 2.833-5.402 2.833l-2.722 2.302-3.716 3.562-3.112 4.403zm86.152-5.546l-1.751-4.902-1.499-3.376-1.768-2.888-2.034-2.799-1.772-2.074-1.222-1.567-1.406-1.318-2.58-2.25-2-1.738-3.3-2.16-3.115-2.096-5.102-2.323-4.145-1.867-5.285-1.298-3.332-.677-3.009-.593-3.51-.31-2.777-.168-3.971.126-4.233.306-4.589.771-3.359.779-3.21 1.016-3.181 1.182-2.968 1.51 3.221-.514 3.003-.882 1.967-.401 1.91-.348 2.742-.406 2.111-.232 2.937-.092 2.778-.165 3.766.023 3.79.525 3.72.515 3.933.869 2.251.91 3.834 1.205 3.164 1.545 2.226 1.141 2.588 1.328 2.569 1.844 2.257 1.693 1.795 1.81 1.383 1.399 1.603 1.6 1.02 1.405 1.238 1.627 1.287 2.055 1.46 2.7 1.28 2.741 1.294 3.383.686 2.531.782 3.081.557 1.758 1.354 1.135 1.322 1.724 1.314 3.298.344 1.881s.464 8.216 1.38 5.844c.916-2.372 1.498-5.791 1.498-5.791l.105-3.6-.165-5.181-1.186-5.244z" fill="#000"/><path d="M120.279 90.27l2.539-4.598 1.473-3.44 1.068-3.4.763-3.391.406-2.791.279-1.924.07-1.974.005-3.51-.324-2.8-.707-3.943-1.025-3.912-1.89-5.28-2.038-3.925-2.535-4.27-2.005-2.723-1.629-2.098-2.639-2.76-1.965-1.77-2.695-2.4-2.809-2.335-2.457-1.48-3.251-1.896-4.698-2.246-2.496-1.032-3.303-.616 2.732 1.475 2.882 1.446 2.357 1.399 1.467.876 1.637 1.367 1.908 1.494 1.938 1.59 1.847 1.453 2.307 2.24 2.279 2.512 2.204 2.876 2.351 3.095 1.25 2.195 1.498 2.828 1.33 2.98.846 2.489.837 2.887.578 3 .539 2.772.147 2.642-.093 2.135-.295 2.031-.214 1.469-.316 2.179-.297 2.874-1.052 2.933-1.199 2.821-1.661 3.259-1.424 2.217-1.731 2.484-.978 1.738-.058 1.765-.329 2.263-1.586 3.219-1.164 1.518s-5.65 5.763-3.318 4.903c2.331-.86 5.121-2.62 5.121-2.62l2.716-2.309 3.707-3.57 3.1-4.41z" fill="#000"/></svg>